HIERARCHY
ROOT Bip001_Pelvis
{
  OFFSET 34.4345 95.6767 -26.8758
  CHANNELS 6 Xposition Yposition Zposition Zrotation Xrotation Yrotation
  JOINT Bip001_Spine
  {
    OFFSET 1.4188e-005 10.2191 -0.0116013
    CHANNELS 3 Zrotation Xrotation Yrotation
    JOINT Bip001_L_Thigh
    {
      OFFSET 11.0458 -10.2192 0.0116197
      CHANNELS 3 Zrotation Xrotation Yrotation
      JOINT Bip001_L_Calf
      {
        OFFSET -0.707118 -44.0221 0.360014
        CHANNELS 3 Zrotation Xrotation Yrotation
        JOINT Bip001_L_Foot
        {
          OFFSET -0.651902 -40.5938 -3.56146
          CHANNELS 3 Zrotation Xrotation Yrotation
          JOINT Bip001_L_Toe0
          {
            OFFSET 0.0530839 -10.2181 13.1504
            CHANNELS 3 Zrotation Xrotation Yrotation
            End Site
            {
              OFFSET -1.02532e-005 0 7.55606
            }
          }
        }
      }
    }
    JOINT Bip001_R_Thigh
    {
      OFFSET -11.0458 -10.2191 0.0115893
      CHANNELS 3 Zrotation Xrotation Yrotation
      JOINT Bip001_R_Calf
      {
        OFFSET 0.706994 -44.0221 0.35984
        CHANNELS 3 Zrotation Xrotation Yrotation
        JOINT Bip001_R_Foot
        {
          OFFSET 0.651786 -40.5938 -3.5613
          CHANNELS 3 Zrotation Xrotation Yrotation
          JOINT Bip001_R_Toe0
          {
            OFFSET -0.0531479 -10.2181 13.1504
            CHANNELS 3 Zrotation Xrotation Yrotation
            End Site
            {
              OFFSET -1.02894e-005 0 7.55606
            }
          }
        }
      }
    }
    JOINT Bip001_Spine1
    {
      OFFSET 1.87041e-005 14.5736 1.08638
      CHANNELS 3 Zrotation Xrotation Yrotation
      JOINT Bip001_Spine2
      {
        OFFSET 2.24614e-005 14.5058 -1.69078
        CHANNELS 3 Zrotation Xrotation Yrotation
        JOINT Bip001_Neck
        {
          OFFSET 2.20278e-005 15.3945 -0.489414
          CHANNELS 3 Zrotation Xrotation Yrotation
          JOINT Bip001_L_Clavicle
          {
            OFFSET 6.06036 -0.000579998 0.00836775
            CHANNELS 3 Zrotation Xrotation Yrotation
            JOINT Bip001_L_UpperArm
            {
              OFFSET 11.5509 -0.0600302 0.00193952
              CHANNELS 3 Zrotation Xrotation Yrotation
              JOINT Bip001_L_Forearm
              {
                OFFSET 25.9523 0.0806089 -2.15551
                CHANNELS 3 Zrotation Xrotation Yrotation
                JOINT Bip001_L_Hand
                {
                  OFFSET 32.2475 0.153767 1.63968
                  CHANNELS 3 Zrotation Xrotation Yrotation
                  JOINT Bip001_L_Finger0
                  {
                    OFFSET 6.04639 -2.20976 5.90322
                    CHANNELS 3 Zrotation Xrotation Yrotation
                    End Site
                    {
                      OFFSET 4.22375 -1.43895 0.606485
                    }
                  }
                  JOINT Bip001_L_Finger1
                  {
                    OFFSET 11.0826 -0.704819 -0.198153
                    CHANNELS 3 Zrotation Xrotation Yrotation
                    End Site
                    {
                      OFFSET 6.20027 -0.397518 -0.0787166
                    }
                  }
                }
              }
            }
          }
          JOINT Bip001_R_Clavicle
          {
            OFFSET -6.06037 -0.000563197 0.00835105
            CHANNELS 3 Zrotation Xrotation Yrotation
            JOINT Bip001_R_UpperArm
            {
              OFFSET -11.5509 -0.0599978 0.00190698
              CHANNELS 3 Zrotation Xrotation Yrotation
              JOINT Bip001_R_Forearm
              {
                OFFSET -25.9523 0.0806822 -2.15589
                CHANNELS 3 Zrotation Xrotation Yrotation
                JOINT Bip001_R_Hand
                {
                  OFFSET -32.2475 0.153859 1.63989
                  CHANNELS 3 Zrotation Xrotation Yrotation
                  JOINT Bip001_R_Finger0
                  {
                    OFFSET -6.04641 -2.20976 5.90317
                    CHANNELS 3 Zrotation Xrotation Yrotation
                    End Site
                    {
                      OFFSET -4.22376 -1.43895 0.60647
                    }
                  }
                  JOINT Bip001_R_Finger1
                  {
                    OFFSET -11.0826 -0.704794 -0.198182
                    CHANNELS 3 Zrotation Xrotation Yrotation
                    End Site
                    {
                      OFFSET -6.20028 -0.397504 -0.0787333
                    }
                  }
                }
              }
            }
          }
          JOINT Bip001_Head
          {
            OFFSET 1.09673e-005 11.2744 2.05948
            CHANNELS 3 Zrotation Xrotation Yrotation
            End Site
            {
              OFFSET 2.89576e-005 20.8808 -2.77728e-005
            }
          }
        }
      }
    }
  }
}
MOTION
Frames:	16
Frame Time:	0.04
33.805 94.8925 -30.6271 -2.17759 1.26665 22.7151 -0.482524 2.48899 0.19294 7.20404 -16.3729 4.33773 1.14662 20.6696 -15.6923 2.32909 -8.01551 0.0592581 1.48326 -3.51711 -1.5703 -1.83667 -3.15616 -2.45253 2.50676 12.0335 -2.66983 -10.6475 -6.04901 -15.973 3.236 -10.7608 3.62017 -0.962768 4.97605 0.407018 -0.968756 4.976 0.406725 8.86183 -0.778818 -7.53138 -29.4645 -0.21681 0.0191832 -57.3746 35.2475 12.8554 16.0235 -2.27068 -33.3141 9.83159 0.954372 -4.68522 -3.18055e-015 0 3.18055e-015 -3.18055e-015 0 -0 8.59782 7.45232 25.6618 57.9208 -30.7893 51.531 -60.6024 0.498675 93.3198 -39.1136 -5.29423 1.18249 -3.97569e-015 6.36111e-015 7.95139e-016 -2.38542e-015 6.36111e-015 7.95139e-016 -11.7578 1.63544 -2.02489 
34.0679 95.0802 -30.5135 -1.1797 0.0601104 16.4788 -0.306181 2.6067 -0.044041 7.25683 -12.718 6.32567 0.605892 19.4371 -10.9922 0.00171063 -9.50734 0.0178759 0.700396 -1.96751 -0.920005 -2.91593 -2.94642 -1.75777 1.69692 12.6072 -1.8409 -9.70621 -6.76923 -11.8011 3.19393 -10.7588 3.73285 -0.614954 5.21367 -0.0663507 -0.612851 5.21371 -0.0701095 4.40777 -0.397604 -4.90234 -26.9336 0.5661 -0.254958 -59.239 37.3864 15.6585 16.3136 -1.0063 -31.6717 8.01456 1.30596 -5.19938 -7.95139e-015 -3.18055e-015 3.18055e-015 -3.18055e-015 -3.18056e-015 3.18055e-015 9.77359 6.66342 25.8472 53.9543 -24.7789 47.0703 -58.8768 1.8293 92.3315 -45.9868 -7.26307 0.114226 2.64834e-031 9.54166e-015 -1.59028e-015 -7.95139e-016 9.54167e-015 -7.95139e-016 -8.9156 3.09601 -1.28644 
34.034 95.183 -30.6189 -0.966536 -0.72984 8.77188 -0.095997 2.78964 0.266826 7.71043 -9.73061 7.13526 -0.914633 18.257 -4.66006 -0.199586 -9.88261 0.0198108 0.529174 -1.92617 -0.541502 -3.45147 -3.85137 -0.0457339 0.983122 12.9887 -0.950871 -8.53265 -7.42468 -7.3474 3.10897 -10.3699 3.45917 -0.205418 5.57901 0.539279 -0.205419 5.57895 0.53928 0.520835 -2.6195 -2.85255 -24.91 3.68107 -1.05898 -59.3334 41.6157 16.3042 16.5535 0.931882 -28.6515 5.04531 0.945591 -6.42874 -0 -6.36111e-015 -0 -1.59028e-015 -3.18056e-015 -0 11.9379 8.47703 25.4464 51.1075 -18.0215 44.8312 -58.1443 3.4341 89.4206 -48.0725 -8.35732 0.907852 -7.95139e-016 -6.36111e-015 -7.95139e-016 -0 -3.18056e-015 -0 -5.89202 5.33032 -1.03536 
33.976 95.1949 -30.74 -0.787725 -1.81619 2.71828 0.0713621 2.86872 0.543757 7.3701 -6.75325 7.09705 -1.60062 16.8691 0.267108 0.621287 -9.49377 0.0470923 0.556067 -2.68874 -0.288443 -4.02767 -4.19074 -0.0891625 0.341287 13.5779 0.259858 -7.37943 -8.36637 -2.92155 3.02892 -10.0069 3.20248 0.115537 5.73788 1.08601 0.115537 5.7379 1.08601 0.693121 -1.30622 -2.54963 -25.5741 2.80548 -2.42777 -62.8337 48.303 18.952 18.8001 0.748177 -25.6066 2.21408 0.789495 -5.70598 1.59028e-015 6.36111e-015 -7.95139e-016 1.59028e-015 6.36111e-015 -1.59028e-015 11.8888 7.43402 26.3931 45.7599 -10.3342 41.2274 -58.8635 4.17858 84.4332 -40.7849 -8.4851 2.80223 -4.77083e-015 0 3.18055e-015 -3.18055e-015 3.18056e-015 4.77083e-015 -6.13865 3.57426 -0.727921 
33.9665 95.2304 -30.8984 -0.639462 -2.67114 -1.14033 0.081077 2.98451 0.480683 6.50949 -4.4753 7.70497 -1.13613 15.0188 2.45997 2.62034 -7.62069 0.0734102 1.19891 -4.30733 -0.530486 -4.56969 -4.33774 -0.96296 -0.0957165 13.7877 0.858492 -6.22851 -9.10582 1.00018 2.91758 -9.76882 3.19936 0.140124 5.96984 0.958614 0.138803 5.96976 0.958732 0.284558 -1.98257 -1.95517 -25.1391 3.87314 -3.27326 -62.4698 48.3442 18.4688 19.8978 2.6019 -24.8472 1.25924 2.0088 -3.77933 1.59028e-015 1.27222e-014 -1.19271e-015 1.59028e-015 9.54167e-015 -7.95139e-016 14.2198 8.5036 25.6656 39.3026 -2.38474 36.327 -58.4425 5.10259 80.3119 -36.0286 -8.52798 3.99224 0 3.18055e-015 -0 -3.18055e-015 6.36111e-015 -0 -4.8178 4.19985 -0.562025 
33.7528 95.3229 -31.1571 -0.338504 -2.92681 -3.99279 0.007148 2.98734 0.182358 5.98154 -2.92828 9.91938 -0.60844 13.2894 2.9188 2.24922 -6.94957 0.0473863 1.00529 -4.37245 -0.234147 -4.83644 -4.99757 0.141212 -0.164854 14.1161 1.23005 -5.6451 -9.3245 2.5524 2.82475 -9.48618 3.09541 0.00426403 5.97472 0.365135 0.00452221 5.97473 0.365135 0.194345 -2.34072 -0.953347 -24.6591 4.27922 -2.97467 -59.6201 45.7414 15.411 19.7187 5.07498 -24.8963 2.34815 2.82628 -3.01597 -3.18055e-015 0 -0 -1.59028e-015 -3.18056e-015 -3.97569e-016 16.7263 9.5394 25.8075 33.8704 4.81497 30.209 -56.5267 5.92746 76.7513 -31.4427 -9.00057 5.73483 -1.76556e-031 3.18055e-015 3.18055e-015 3.18055e-015 3.18056e-015 6.36111e-015 -3.62506 4.56493 0.0758171 
33.4907 95.3964 -31.4723 -0.16904 -3.1703 -5.92086 -0.0262739 2.98698 -0.042468 5.81456 -1.84795 11.4119 -0.530667 12.0606 3.5752 1.45315 -6.73649 0.0401368 0.950198 -4.4041 -0.139094 -4.89681 -5.36099 1.31108 -0.126496 14.1173 1.31491 -5.30669 -9.35337 3.39457 2.77768 -9.30234 2.98195 -0.0421718 5.97394 -0.0845087 -0.046393 5.97394 -0.0844426 -0.284528 -2.35392 -0.272785 -23.9734 4.35652 -2.89675 -56.9663 44.8299 12.3476 18.4326 3.43648 -24.2035 4.02262 2.79601 -2.9449 -0 -6.36111e-015 -0 1.59028e-015 -6.36111e-015 1.59028e-015 19.785 10.3147 26.1531 30.3927 11.7936 22.3871 -56.1091 7.31397 73.7899 -32.937 -9.16891 5.60416 -3.18055e-015 -1.59028e-015 -0 0 0 -3.18055e-015 -2.35676 4.81488 0.280346 
33.1263 95.4848 -31.7597 -0.460146 -3.27925 -7.10878 0.0653948 3.02505 -0.168915 6.10948 -1.32572 11.9107 -0.528606 11.4307 4.45011 0.810069 -6.6356 0.0388163 0.970035 -4.29264 -0.0956381 -4.57754 -5.2999 1.46069 -0.141805 13.3909 1.42771 -4.87681 -9.11971 4.33472 2.708 -9.08848 2.90244 0.13969 6.0499 -0.344075 0.139774 6.04991 -0.343005 -0.643385 -3.1622 0.098952 -23.4764 5.20122 -2.77452 -53.5293 44.497 8.32766 16.9379 0.348681 -23.8328 4.32848 2.06092 -2.47023 4.41391e-032 -3.18055e-015 7.95139e-016 3.18055e-015 -3.18056e-015 7.95139e-016 22.377 11.5202 25.5038 30.5358 16.9466 13.8093 -56.9358 8.85541 71.9139 -30.7455 -9.9342 5.58702 -1.32417e-031 2.38542e-015 3.18055e-015 3.18055e-015 2.38542e-015 6.36111e-015 -1.13553 5.79237 0.233597 
32.8134 95.5795 -31.9654 -0.534673 -3.10273 -7.85888 0.122875 2.97703 -0.142801 5.90926 -1.01893 12.1393 0.0755301 10.4894 4.65765 0.54325 -5.98407 0.037771 0.897496 -4.33357 0.0887139 -4.4945 -5.32812 1.16257 -0.0830605 12.7291 1.4469 -4.42944 -8.94616 5.17129 2.62671 -8.85092 2.82936 0.25666 5.95375 -0.291423 0.255204 5.95375 -0.29215 -0.323033 -3.47681 -0.0669212 -23.8298 5.57805 -3.01841 -49.9782 43.5983 4.70984 15.8335 -1.99039 -24.2514 5.2056 1.74032 -2.39458 -0 -3.18055e-015 -0 -3.18055e-015 0 -0 23.4491 11.8449 24.1482 32.8805 22.6477 5.97635 -54.7574 10.2168 67.697 -26.4309 -9.75535 5.5516 -1.19271e-015 0 -0 -1.19271e-015 -3.97569e-016 -3.18055e-015 -1.01778 6.47395 0.125544 
32.505 95.6992 -32.0857 -0.436808 -2.86374 -8.20996 0.117 2.90117 -0.0690766 5.86978 -0.486907 12.1552 0.126555 9.00706 4.60466 0.183031 -5.16685 0.0370629 0.523556 -4.28287 0.436753 -4.53809 -5.19075 0.857135 0.0831102 11.8887 1.21554 -3.95841 -8.73334 5.82557 2.49746 -8.47587 2.72142 0.237799 5.80219 -0.14439 0.237886 5.80219 -0.144379 0.457855 -3.8564 -0.412502 -24.5659 6.00447 -3.31546 -46.8274 42.0053 1.42707 15.1716 -3.10417 -25.1984 7.29711 1.45079 -3.10806 -3.18055e-015 0 3.18055e-015 -0 0 1.59028e-015 23.1163 11.9733 22.7211 38.1198 27.2813 -1.11653 -53.7446 12.7828 61.5572 -21.4274 -10.0059 5.61443 -6.36111e-015 -3.18055e-015 1.59028e-015 -3.18055e-015 -3.97569e-015 4.77083e-015 -1.49247 7.13629 0.15276 
32.1877 95.8171 -32.1485 -0.480747 -2.80714 -8.44138 0.0847882 2.88668 -0.0209637 6.15036 0.178852 12.8222 0.00590458 7.69903 4.19117 -0.539243 -4.80547 0.0367526 0.304164 -3.91219 0.584163 -4.41627 -4.69774 0.813792 0.261346 10.7204 0.85785 -3.48589 -8.35373 6.28402 2.38697 -8.14084 2.61455 0.169589 5.77336 -0.0471629 0.170243 5.77335 -0.0466579 0.831891 -3.98257 -0.26469 -24.4786 6.19844 -3.58816 -44.5455 40.0852 -1.39831 15.2104 -3.01029 -26.7146 9.83579 1.04456 -3.90658 -1.76556e-031 6.36111e-015 1.59028e-015 3.18055e-015 6.36111e-015 1.59028e-015 23.1262 11.9073 21.8463 43.9814 29.6358 -7.05589 -46.0146 11.7482 52.9337 -14.5303 -10.1472 4.2636 3.18055e-015 4.94477e-015 1.54058e-015 -8.14676e-032 3.13086e-015 1.49088e-015 -1.68607 7.27582 0.438327 
32.0138 95.8446 -32.3017 -0.210614 -2.42139 -7.92836 0.022439 2.79575 -0.192155 6.02806 -0.158969 12.8555 0.280253 7.3084 3.96799 -1.20104 -4.6713 0.0406761 0.126998 -3.62647 0.705336 -4.6049 -4.95744 0.59276 0.52627 10.6226 0.699933 -3.32451 -8.41326 6.22677 2.34702 -8.03448 2.59953 0.0547889 5.59139 -0.38662 0.0537002 5.59142 -0.386313 0.78367 -3.93458 0.412458 -24.0804 6.28535 -3.81205 -43.2623 37.6076 -3.5005 14.7189 -5.18046 -28.8849 10.0897 0.965326 -4.51818 9.54166e-015 -3.18055e-015 -0 9.54166e-015 -3.18056e-015 -0 23.8564 11.6418 20.8892 48.6356 30.481 -11.5811 -39.6389 9.89926 45.4293 -5.38061 -7.96961 1.91034 -3.18055e-015 0 1.59028e-015 0 1.59028e-015 -0 -1.81496 7.1441 1.12154 
31.844 95.8304 -32.5106 0.0306487 -1.9597 -7.61384 -0.019213 2.70491 -0.260713 5.91697 -0.750498 12.9778 0.422015 7.14906 3.41847 -0.215685 -3.66229 0.0201236 0.420242 -4.33784 0.511113 -4.65076 -5.5383 0.806073 0.688095 10.862 0.499687 -3.33701 -8.53353 5.96423 2.23852 -7.68302 2.46018 -0.0274045 5.40991 -0.519256 -0.0241974 5.40991 -0.520517 1.47641 -3.27007 0.963037 -24.4184 5.86211 -4.50624 -42.9699 35.4583 -4.63303 14.3896 -6.9673 -31.3484 11.5632 0.934417 -5.18434 9.54166e-015 -3.18055e-015 -6.36111e-015 6.36111e-015 -9.54167e-015 -3.18055e-015 23.1633 10.4076 19.4169 53.5763 34.8999 -13.9086 -38.7469 12.8421 37.2289 0.0312235 -7.28225 1.90106 8.82781e-032 -3.18055e-015 1.59028e-015 -3.18055e-015 -3.18056e-015 1.59028e-015 -2.72478 6.26699 2.06231 
31.5302 95.8509 -32.5031 -0.168746 -2.04084 -6.8546 0.0357686 2.71524 -0.373581 6.42786 -0.835693 13.239 0.295457 7.30975 2.67228 -0.50843 -3.72135 0.0296938 0.476799 -4.27065 0.40462 -4.21169 -5.10029 0.164319 0.458676 10.492 0.547608 -3.31079 -8.42733 5.92254 2.09248 -7.22308 2.30159 0.0851199 5.43021 -0.75003 0.086426 5.4302 -0.74985 1.54102 -2.86734 1.50423 -24.4333 5.70975 -5.13864 -42.9075 33.5797 -5.91572 13.6217 -8.06793 -33.1001 12.0425 0.687274 -5.36601 3.18055e-015 0 -3.18055e-015 3.18055e-015 3.18056e-015 -3.18055e-015 23.4455 9.56358 18.06 57.4274 38.5398 -15.1134 -37.2749 18.5962 29.6844 3.59725 -7.35267 4.07543 -3.18055e-015 -1.59028e-015 -0 0 1.59028e-015 -0 -2.71097 6.13483 2.60616 
31.4993 95.8354 -32.5742 0.140425 -1.94036 -6.31123 0.00117962 2.66598 -0.464076 6.13268 -0.912217 13.5983 0.464608 6.9191 1.94523 -0.474432 -3.37008 0.0296825 0.640823 -4.44284 0.222804 -4.42116 -5.44311 0.908893 0.674902 11.1017 0.41229 -3.68906 -8.61858 4.95208 2.07221 -7.13832 2.25977 0.0226374 5.33187 -0.930191 0.0233018 5.33187 -0.929891 1.16562 -2.77579 2.12179 -24.0584 5.7641 -5.35796 -43.0648 33.0189 -6.90137 13.0316 -8.71619 -34.4762 12.5632 0.353477 -5.76608 6.36111e-015 7.95139e-015 3.18055e-015 6.36111e-015 4.77083e-015 3.18055e-015 24.4299 9.03102 16.6416 60.4642 40.9357 -15.5287 -32.725 20.6387 21.9372 5.64366 -6.6148 4.215 1.59028e-015 0 1.98785e-015 -1.59028e-015 3.18056e-015 1.59028e-015 -2.59122 6.17473 3.0672 
31.4173 95.8248 -32.5492 0.299567 -1.86062 -5.64592 0.011734 2.6103 -0.530321 5.99895 -0.984483 13.8743 0.633844 6.73064 1.14932 -0.737994 -3.35711 0.0296822 0.615213 -4.33091 0.220089 -4.49125 -5.48749 1.46329 0.832489 11.4044 0.348324 -4.14606 -8.7473 4.00786 2.10317 -7.21247 2.26566 0.0477507 5.22038 -1.06299 0.0477506 5.22039 -1.063 1.28943 -2.53299 2.5086 -24.0545 5.64652 -5.64936 -43.5346 33.6897 -7.25936 13.1602 -8.45417 -35.4212 12.7595 0.170236 -6.56152 -3.18055e-015 -4.77083e-015 -0 -6.36111e-015 -1.59028e-015 3.18055e-015 24.7391 8.35436 15.2453 62.6463 41.3705 -15.3312 -27.2159 18.9201 15.6756 6.72433 -6.59008 3.78642 -0 0 2.68359e-015 -3.97569e-016 3.18056e-015 9.93923e-016 -3.06275 6.05542 3.60572 
